<?xml version="1.0" encoding="UTF-8"?>
<svg width="152px" height="153px" viewBox="0 0 152 153" version="1.1" xmlns="http://www.w3.org/2000/svg" xmlns:xlink="http://www.w3.org/1999/xlink">
    <!-- Generator: Sketch 49 (51002) - http://www.bohemiancoding.com/sketch -->
    <title>graphic1</title>
    <desc>Created with Sketch.</desc>
    <defs>
        <linearGradient x1="50%" y1="0%" x2="50%" y2="100%" id="linearGradient-1">
            <stop stop-color="#C9ACFF" offset="0%"></stop>
            <stop stop-color="#9974FF" offset="100%"></stop>
        </linearGradient>
        <linearGradient x1="50%" y1="0%" x2="50%" y2="100%" id="linearGradient-2">
            <stop stop-color="#2282C1" offset="0%"></stop>
            <stop stop-color="#0F4B8D" offset="100%"></stop>
        </linearGradient>
    </defs>
    <g id="Page-1-HOME" stroke="none" stroke-width="1" fill="none" fill-rule="evenodd">
        <g id="Desktop02-product" transform="translate(-863.000000, -656.000000)">
            <g id="graphic1" transform="translate(821.000000, 615.000000)">
                <g transform="translate(103.645719, 103.645719) rotate(45.000000) translate(-103.645719, -103.645719) translate(30.357128, 30.357128)">
                    <path d="M19.5436242,39.0872483 L0,72.590604 L19.5436242,106.09396 L58.635471,106.09396 L78.1744966,72.590604 L58.635471,39.0872483 L19.5436242,39.0872483 Z M10.6225345,72.590604 L24.8594899,48.1947357 L53.3242037,48.1947357 L67.5565606,72.590604 L53.3242037,96.9910238 L24.8594899,96.9910238 L10.6225345,72.590604 Z" id="Fill-1" fill="#FFFFFF"></path>
                    <path d="M87.9463087,0 L68.4026846,33.5033557 L87.9463087,67.0067114 L127.033557,67.0067114 L146.577181,33.5033557 L127.033557,0 L87.9463087,0 Z M79.0206206,33.5033557 L93.257576,9.1074874 L121.726888,9.1074874 L135.959245,33.5033557 L121.72229,57.9037755 L93.2529775,57.9037755 L79.0206206,33.5033557 Z" id="Fill-2" fill="url(#linearGradient-1)"></path>
                    <path d="M87.9463087,79.5704698 L68.4026846,113.073826 L87.9463087,146.577181 L127.033557,146.577181 L146.577181,113.073826 L127.033557,79.5704698 L87.9463087,79.5704698 Z M79.5704698,113.771812 L93.8780389,89.3422819 L122.4978,89.3422819 L136.805369,113.771812 L122.4978,138.201342 L93.8780389,138.201342 L79.5704698,113.771812 Z" id="Fill-3" fill="url(#linearGradient-2)"></path>
                </g>
            </g>
        </g>
    </g>
</svg>