<?xml version="1.0" encoding="utf-8"?>
<!-- Generator: Adobe Illustrator 22.0.0, SVG Export Plug-In . SVG Version: 6.00 Build 0)  -->
<svg version="1.1" id="Layer_1" xmlns="http://www.w3.org/2000/svg" xmlns:xlink="http://www.w3.org/1999/xlink" x="0px" y="0px"
	 viewBox="0 0 538 141.3" style="enable-background:new 0 0 538 141.3;" xml:space="preserve">
<style type="text/css">
	.st0{fill:#FFFFFF;}
	.st1{fill:none;stroke:#FFFFFF;stroke-width:4;stroke-linecap:round;stroke-linejoin:round;stroke-miterlimit:10;}
</style>
<g>
	<g>
		<path class="st0" d="M59.5,10c0.8,0,1.6,0.2,2.3,0.6l51,29.5c1.4,0.8,2.3,2.3,2.3,3.9v58.9c0,1.6-0.9,3.1-2.3,3.9l-51,29.5
			c-0.7,0.4-1.5,0.6-2.3,0.6s-1.6-0.2-2.3-0.6l-51-29.5C4.9,106,4,104.5,4,102.9V44c0-1.6,0.9-3.1,2.3-3.9l51-29.5
			C58,10.2,58.7,10,59.5,10 M59.5,6c-1.5,0-2.9,0.4-4.3,1.1l-51,29.5C1.6,38.1,0,40.9,0,44v58.9c0,3,1.6,5.8,4.3,7.4l51,29.5
			c1.3,0.8,2.8,1.1,4.3,1.1c1.5,0,2.9-0.4,4.3-1.1l51-29.5c2.6-1.5,4.3-4.3,4.3-7.4V44c0-3-1.6-5.8-4.3-7.4l-51-29.5
			C62.5,6.4,61,6,59.5,6L59.5,6z"/>
	</g>
	<polyline class="st1" points="88.3,90.4 88.3,56.4 59.8,73.2 30.8,56.4 30.8,90.4 	"/>
</g>
<g>
	<path class="st0" d="M143.5,92.9V56.5h6.1l11.3,31.8l11.2-31.8h6.1v36.4h-3.2v-33h-0.7l-11.4,31.8h-3.8l-11.4-31.8h-0.7v33H143.5z"
		/>
	<path class="st0" d="M188.2,92.9l10.5-36.4h7.6l10.4,36.4h-3.2l-2.9-10.1h-16.2l-2.9,10.1H188.2z M201,59.3l-5.9,20.6h14.7
		l-5.9-20.6H201z"/>
	<path class="st0" d="M230,92.9h-3.2V56.5h3.2v17.2l6.3-0.2l10.1-17h3.7l-11,18.3l11.7,18.1h-3.9l-10.6-16.4l-6.3,0.1V92.9z"/>
	<path class="st0" d="M260.4,92.9V56.5h21.8v2.9h-18.6v13.5h15.4v2.9h-15.4V90h18.6v2.9H260.4z"/>
	<path class="st0" d="M296.7,78.5v14.3h-3.2V56.5h13.3c3.8,0,6.6,0.9,8.5,2.6c1.9,1.7,2.8,4.5,2.8,8.2c0,5.8-2.3,9.4-7,10.6l7.5,15
		H315l-7.2-14.3H296.7z M314.8,67.3c0-2.7-0.6-4.7-1.9-6c-1.3-1.3-3.3-1.9-6-1.9h-10.1v16.3h10.1C312.1,75.6,314.8,72.9,314.8,67.3z
		"/>
	<path class="st0" d="M339.7,58.8c-5.6,0-8.4,2.1-8.4,6.4c0,2.5,0.6,4.2,1.9,5.1c1.3,0.9,3.8,1.7,7.5,2.4c3.7,0.7,6.4,1.7,8,3
		c1.6,1.3,2.4,3.5,2.4,6.5c0,3.9-1,6.7-2.9,8.5s-4.8,2.6-8.5,2.6c-2.7,0-5.9-0.2-9.5-0.7l-1.9-0.3l0.4-2.8c4.8,0.6,8.5,0.9,11.1,0.9
		c2.6,0,4.6-0.6,6-1.9c1.4-1.3,2-3.1,2-5.6c0-2.5-0.6-4.1-1.8-5c-1.2-0.9-3.1-1.6-5.8-2.1c-2.6-0.5-4.6-0.9-5.8-1.3
		c-1.2-0.4-2.4-1-3.4-1.7c-1.1-0.8-1.8-1.7-2.3-2.9c-0.5-1.2-0.7-2.6-0.7-4.4c0-6.4,3.8-9.5,11.5-9.5c2.3,0,5.3,0.2,9,0.7l1.7,0.3
		l-0.3,2.8C345.1,59.1,341.7,58.8,339.7,58.8z"/>
	<path class="st0" d="M358.5,59.4v-2.9h26.2v2.9h-11.4v33.5H370V59.4H358.5z"/>
	<path class="st0" d="M388.3,92.9l10.5-36.4h7.6l10.4,36.4h-3.2l-2.9-10.1h-16.2l-2.9,10.1H388.3z M401.1,59.3l-5.9,20.6h14.7
		l-5.9-20.6H401.1z"/>
	<path class="st0" d="M420.4,59.4v-2.9h26.2v2.9h-11.4v33.5h-3.2V59.4H420.4z"/>
	<path class="st0" d="M456,92.9V56.5h3.2v36.4H456z"/>
	<path class="st0" d="M499.5,75c0,6.5-1,11.2-3.1,14.1c-2,2.9-5.8,4.3-11.2,4.3s-9.1-1.5-11.2-4.4c-2-3-3.1-7.7-3.1-14.1
		c0-6.4,1-11.2,3.1-14.3c2.1-3.1,5.8-4.7,11.1-4.7c5.3,0,9,1.5,11.1,4.6C498.5,63.7,499.5,68.5,499.5,75z M476.6,86.8
		c1.5,2.4,4.4,3.6,8.7,3.6c4.3,0,7.2-1.2,8.7-3.6c1.5-2.4,2.2-6.3,2.2-11.9c0-5.6-0.8-9.6-2.3-12.2c-1.5-2.6-4.4-3.9-8.6-3.9
		c-4.3,0-7.2,1.4-8.7,4.2c-0.8,1.4-1.4,3.1-1.6,4.9c-0.3,1.9-0.4,4.1-0.4,6.9C474.4,80.4,475.2,84.4,476.6,86.8z"/>
	<path class="st0" d="M511.4,92.9V56.5h6.4L533,90h1.2V56.5h3.2v36.4h-6.3l-15.3-33.5h-1.2v33.5H511.4z"/>
</g>
</svg>
