<?xml version="1.0" encoding="UTF-8"?>
<svg width="63px" height="78px" viewBox="0 0 63 78" version="1.1" xmlns="http://www.w3.org/2000/svg" xmlns:xlink="http://www.w3.org/1999/xlink">
    <defs>
        <linearGradient x1="50%" y1="0%" x2="50%" y2="100%" id="linearGradient-1">
            <stop stop-color="#FF01AA" stop-opacity="0.462182971" offset="0%"></stop>
            <stop stop-color="#000000" stop-opacity="0.5" offset="100%"></stop>
        </linearGradient>
        <path d="M35.0536189,80.1576869 C33.0987181,81.280771 29.9004612,81.280771 27.9463811,80.1576869 L3.55361888,66.1415961 C1.59953885,65.0185119 0,62.2618507 0,60.0156823 L0,31.9843177 C0,29.7381493 1.59953885,26.9814881 3.55361888,25.8584039 L27.9463811,11.8423131 C29.9004612,10.719229 33.0987181,10.719229 35.0536189,11.8423131 L59.4463811,25.8584039 C61.4004612,26.9814881 63,29.7381493 63,31.9843177 L63,60.0156823 C63,62.2618507 61.4004612,65.0185119 59.4463811,66.1415961 L35.0536189,80.1576869 Z" id="path-2"></path>
        <filter x="-11.1%" y="-7.1%" width="122.2%" height="120.0%" filterUnits="objectBoundingBox" id="filter-3">
            <feOffset dx="0" dy="2" in="SourceAlpha" result="shadowOffsetOuter1"></feOffset>
            <feGaussianBlur stdDeviation="2" in="shadowOffsetOuter1" result="shadowBlurOuter1"></feGaussianBlur>
            <feColorMatrix values="0 0 0 0 0.572332058   0 0 0 0 0.572332058   0 0 0 0 0.572332058  0 0 0 0.5 0" type="matrix" in="shadowBlurOuter1"></feColorMatrix>
        </filter>
    </defs>
    <g id="Symbols" stroke="none" stroke-width="1" fill="none" fill-rule="evenodd">
        <g id="view" transform="translate(0.000000, -7.000000)">
            <g id="view1" transform="translate(0.000000, -2.000000)">
                <g id="Fill-1">
                    <use fill="black" fill-opacity="1" filter="url(#filter-3)" xlink:href="#path-2"></use>
                    <use fill="#B44FDA" fill-rule="evenodd" xlink:href="#path-2"></use>
                    <use fill="url(#linearGradient-1)" fill-rule="evenodd" xlink:href="#path-2"></use>
                </g>
            </g>
        </g>
    </g>
</svg>