<?xml version="1.0" standalone="no"?>
<!DOCTYPE svg PUBLIC "-//W3C//DTD SVG 20010904//EN"
 "http://www.w3.org/TR/2001/REC-SVG-20010904/DTD/svg10.dtd">
<svg version="1.0" xmlns="http://www.w3.org/2000/svg"
 width="135.000000pt" height="135.000000pt" viewBox="0 0 135.000000 135.000000"
 preserveAspectRatio="xMidYMid meet">
<metadata>
Created by potrace 1.11, written by Peter Selinger 2001-2013
</metadata>
<g transform="translate(0.000000,135.000000) scale(0.100000,-0.100000)"
fill="#000000" stroke="none">
<path d="M370 1194 c-146 -84 -271 -162 -277 -171 -10 -13 -13 -100 -13 -354
l0 -338 32 -24 c18 -13 144 -88 279 -166 202 -116 253 -141 285 -141 32 0 85
26 299 150 142 82 268 159 280 170 19 20 20 33 23 343 2 247 -1 328 -11 347
-8 17 -100 76 -282 182 -227 132 -276 157 -310 157 -33 0 -84 -26 -305 -155z"/>
</g>
</svg>
